<?xml version="1.0" encoding="UTF-8" standalone="no"?>
<!-- Created with Inkscape (http://www.inkscape.org/) -->

<svg
   width="114.0666mm"
   height="114.20738mm"
   viewBox="0 0 114.0666 114.20738"
   version="1.1"
   id="svg5"
   inkscape:version="1.1 (c68e22c387, 2021-05-23)"
   sodipodi:docname="Back.svg"
   xmlns:inkscape="http://www.inkscape.org/namespaces/inkscape"
   xmlns:sodipodi="http://sodipodi.sourceforge.net/DTD/sodipodi-0.dtd"
   xmlns:xlink="http://www.w3.org/1999/xlink"
   xmlns="http://www.w3.org/2000/svg"
   xmlns:svg="http://www.w3.org/2000/svg">
  <sodipodi:namedview
     id="namedview7"
     pagecolor="#ffffff"
     bordercolor="#666666"
     borderopacity="1.0"
     inkscape:pageshadow="2"
     inkscape:pageopacity="0.0"
     inkscape:pagecheckerboard="0"
     inkscape:document-units="mm"
     showgrid="false"
     showborder="true"
     inkscape:snap-global="true"
     fit-margin-top="0"
     fit-margin-left="0"
     fit-margin-right="0"
     fit-margin-bottom="0"
     units="in"
     inkscape:zoom="0.70710678"
     inkscape:cx="-133.64318"
     inkscape:cy="251.02291"
     inkscape:window-width="1920"
     inkscape:window-height="1001"
     inkscape:window-x="-9"
     inkscape:window-y="-9"
     inkscape:window-maximized="1"
     inkscape:current-layer="layer1" />
  <defs
     id="defs2">
    <linearGradient
       inkscape:collect="always"
       id="linearGradient27905">
      <stop
         style="stop-color:#193459;stop-opacity:1"
         offset="0"
         id="stop27899" />
      <stop
         style="stop-color:#244b81;stop-opacity:1"
         offset="0.49995008"
         id="stop27901" />
      <stop
         style="stop-color:#204477;stop-opacity:0"
         offset="1"
         id="stop27903" />
    </linearGradient>
    <linearGradient
       inkscape:collect="always"
       id="linearGradient26628">
      <stop
         style="stop-color:#0d4088;stop-opacity:1"
         offset="0"
         id="stop26624" />
      <stop
         style="stop-color:#5a8cd1;stop-opacity:1"
         offset="0.49995008"
         id="stop26666" />
      <stop
         style="stop-color:#122744;stop-opacity:1"
         offset="1"
         id="stop26626" />
    </linearGradient>
    <linearGradient
       inkscape:collect="always"
       xlink:href="#linearGradient26628"
       id="linearGradient26630"
       x1="298.96887"
       y1="627.41351"
       x2="-174.7494"
       y2="-101.0599"
       gradientUnits="userSpaceOnUse"
       gradientTransform="matrix(0.08972505,0,0,0.12050883,-106.81639,-41.257317)" />
    <linearGradient
       inkscape:collect="always"
       xlink:href="#linearGradient26628"
       id="linearGradient27424"
       x1="54.286606"
       y1="38.208263"
       x2="170.75337"
       y2="38.208263"
       gradientUnits="userSpaceOnUse"
       gradientTransform="matrix(0.33911833,0,0,0.45546646,-106.81639,-41.257317)" />
    <linearGradient
       inkscape:collect="always"
       xlink:href="#linearGradient26628"
       id="linearGradient27432"
       x1="-289.83984"
       y1="187.58301"
       x2="660.32227"
       y2="187.58301"
       gradientUnits="userSpaceOnUse"
       gradientTransform="matrix(0.08972505,0,0,0.12050883,-106.81639,-41.257317)" />
    <linearGradient
       inkscape:collect="always"
       xlink:href="#linearGradient27905"
       id="linearGradient27539"
       x1="405.38968"
       y1="-276.19623"
       x2="418.3533"
       y2="425.9649"
       gradientUnits="userSpaceOnUse"
       gradientTransform="matrix(0.08972505,0,0,0.12050883,-106.81639,-41.257317)" />
    <radialGradient
       inkscape:collect="always"
       xlink:href="#linearGradient4380"
       id="radialGradient4388"
       cx="-308.24225"
       cy="390.49066"
       fx="-308.24225"
       fy="390.49066"
       r="279"
       gradientTransform="matrix(0.01387609,2.1439641,-1.5729828,0.01018062,510.16196,951.08566)"
       gradientUnits="userSpaceOnUse" />
    <linearGradient
       inkscape:collect="always"
       id="linearGradient4380">
      <stop
         style="stop-color:#ffffff;stop-opacity:1"
         offset="0"
         id="stop4382" />
      <stop
         id="stop4394"
         offset="0.17293349"
         style="stop-color:#f8e8d3;stop-opacity:1;" />
      <stop
         id="stop4392"
         offset="0.74198854"
         style="stop-color:#f7e5cb;stop-opacity:1" />
      <stop
         style="stop-color:#c9a569;stop-opacity:1"
         offset="1"
         id="stop4384" />
    </linearGradient>
    <linearGradient
       inkscape:collect="always"
       xlink:href="#linearGradient4231"
       id="linearGradient4237"
       x1="-177.48955"
       y1="159.24031"
       x2="-176.40585"
       y2="334.69492"
       gradientUnits="userSpaceOnUse"
       gradientTransform="matrix(0.7412658,0,0,0.92546584,77.261875,21.703155)" />
    <linearGradient
       inkscape:collect="always"
       id="linearGradient4231">
      <stop
         style="stop-color:#ffffff;stop-opacity:0.77380955"
         offset="0"
         id="stop4233" />
      <stop
         style="stop-color:#f7e5cc;stop-opacity:0.71428573"
         offset="1"
         id="stop4235" />
    </linearGradient>
    <linearGradient
       inkscape:collect="always"
       xlink:href="#linearGradient4328"
       id="linearGradient4338"
       x1="-426.30151"
       y1="413.34824"
       x2="-219.84062"
       y2="609.92395"
       gradientUnits="userSpaceOnUse"
       gradientTransform="matrix(1.0260903,0,0,1.1681992,174.45938,-76.584325)" />
    <linearGradient
       inkscape:collect="always"
       id="linearGradient4328">
      <stop
         style="stop-color:#000000;stop-opacity:1"
         offset="0"
         id="stop4330" />
      <stop
         id="stop4344"
         offset="0.48112521"
         style="stop-color:#1d2122;stop-opacity:0.76785713" />
      <stop
         style="stop-color:#2a2e31;stop-opacity:0.72549021"
         offset="0.5380854"
         id="stop4346" />
      <stop
         id="stop4342"
         offset="0.61446327"
         style="stop-color:#3b3d3e;stop-opacity:0.83928573" />
      <stop
         id="stop4340"
         offset="0.66387576"
         style="stop-color:#2e3436;stop-opacity:0.70238096" />
      <stop
         style="stop-color:#101112;stop-opacity:1"
         offset="1"
         id="stop4332" />
    </linearGradient>
    <linearGradient
       inkscape:collect="always"
       xlink:href="#linearGradient4418"
       id="linearGradient4384"
       gradientUnits="userSpaceOnUse"
       gradientTransform="matrix(-1.0260903,0,0,1.1681992,-162.05735,-76.584334)"
       x1="-216.76833"
       y1="439.8848"
       x2="-348.48425"
       y2="578.25128" />
    <linearGradient
       id="linearGradient4418"
       inkscape:collect="always">
      <stop
         id="stop4420"
         offset="0"
         style="stop-color:#000000;stop-opacity:1" />
      <stop
         style="stop-color:#1d2122;stop-opacity:0.76785713"
         offset="0.3832134"
         id="stop4422" />
      <stop
         id="stop4424"
         offset="0.48083508"
         style="stop-color:#2a2e31;stop-opacity:0.72549021" />
      <stop
         style="stop-color:#3b3d3e;stop-opacity:0.83928573"
         offset="0.54062408"
         id="stop4426" />
      <stop
         style="stop-color:#2e3436;stop-opacity:0.70238096"
         offset="0.61886144"
         id="stop4428" />
      <stop
         id="stop4432"
         offset="0.90058047"
         style="stop-color:#151718;stop-opacity:0.94509804;" />
      <stop
         id="stop4430"
         offset="1"
         style="stop-color:#101112;stop-opacity:1" />
    </linearGradient>
  </defs>
  <g
     inkscape:label="Camada 1"
     inkscape:groupmode="layer"
     id="layer1"
     transform="translate(161.63553,75.755616)">
    <path
       style="opacity:1;fill:#162d50;fill-opacity:1;stroke:#000000;stroke-width:0.103984px;stroke-linecap:butt;stroke-linejoin:miter;stroke-opacity:1"
       d="M -161.58354,-75.703624 V 38.399775 l 94.782602,-4.6e-5 -66.021342,-114.103271 z"
       id="path2348" />
    <path
       id="path975"
       style="opacity:1;fill:url(#linearGradient27432);fill-opacity:1;stroke:none;stroke-width:0.103984px;stroke-linecap:butt;stroke-linejoin:miter;stroke-opacity:1"
       d="m -132.82228,-75.703542 66.021343,114.103271 h 19.232004 L -91.26749,-75.703542 Z" />
    <path
       id="path977"
       style="opacity:1;fill:url(#linearGradient27424);fill-opacity:1;stroke:none;stroke-width:0.103984px;stroke-linecap:butt;stroke-linejoin:miter;stroke-opacity:1"
       d="M -88.406803,-75.703542 -48.910788,27.994073 -81.498675,-75.703542 Z" />
    <path
       id="path1174"
       style="opacity:0.416887;fill:url(#linearGradient27539);fill-opacity:1;stroke:none;stroke-width:0.103984px;stroke-linecap:butt;stroke-linejoin:miter;stroke-opacity:1"
       d="M -130.68921,-75.703542 -61.834165,38.399729 H -50.87036 L -94.830031,-75.703542 Z"
       sodipodi:nodetypes="ccccc" />
    <path
       id="rect1616"
       style="opacity:1;fill:url(#linearGradient26630);fill-opacity:1;stroke-width:0.313902;stroke-linecap:square;stroke-linejoin:round;paint-order:stroke markers fill"
       d="m -126.42376,-60.303125 44.110902,98.702854 h 11.74522 z"
       sodipodi:nodetypes="cccc" />
    <g
       id="g864"
       transform="matrix(0.0922123,0,0,0.0922123,-105.16299,-63.771399)"
       style="opacity:1">
      <path
         inkscape:connector-curvature="0"
         id="path4495"
         d="M 4.1521821,126.3125 C -120.72912,125.39642 -241.31772,210.72073 -281.26579,329.17578 c -8.97762,25.42304 -14.16416,52.04647 -17.10937,78.80274 -21.97286,21.11018 -27.46082,53.53604 -26.22852,82.73828 1.85669,44.03468 15.06422,88.60043 42.21875,123.74609 8.41397,8.29685 19.76131,13.88218 31.65625,14.40039 33.6464,74.41682 82.64037,144.47292 151.512257,190.12129 48.496224,31.87212 112.057448,43.66643 167.249464,23.00371 58.408399,-20.72773 104.821109,-65.44652 140.519229,-114.86843 22.10341,-30.67652 40.4215,-63.938 56.20147,-98.25657 21.50594,-1.35944 37.74879,-19.24879 46.00178,-37.86419 19.96452,-39.47788 29.47171,-84.64166 25.14471,-128.77643 -2.92632,-20.39928 -11.16844,-40.55301 -25.81445,-55.35157 -1.81483,-34.03062 -11.00476,-67.508 -24.74762,-98.60752 C 247.85164,224.23224 171.59939,157.08148 81.48421,135.77344 56.249808,129.34188 30.193143,126.15387 4.1521821,126.3125 Z"
         style="opacity:1;fill:#d3d3d3;fill-opacity:1;stroke:none;stroke-width:11.4;stroke-linecap:round;stroke-linejoin:miter;stroke-miterlimit:4;stroke-dasharray:none;stroke-opacity:1" />
      <path
         inkscape:connector-curvature="0"
         id="path4483"
         d="M 4.1443691,134.3125 C -112.65532,133.65117 -225.86483,209.89299 -268.67194,318.66215 c -12.3318,29.62231 -18.76433,61.37092 -22.08213,93.18551 -20.34478,17.47697 -25.8598,45.94119 -26.00976,71.52539 0.14765,43.08251 12.84098,86.30011 36.9414,122.07617 8.23278,9.8935 21.13519,16.63651 34.20899,15.28906 27.71595,62.40412 65.65519,121.60644 117.68013,166.52859 28.355087,24.50451 61.387533,44.80962 98.419476,52.66868 33.6201041,7.82181 69.544175,5.27301 101.478321,-7.98693 55.568453,-21.73763 98.995933,-65.8148 133.074413,-113.59315 21.65801,-30.44684 39.09367,-64.03693 54.73633,-97.63086 18.2027,1.57799 33.68465,-12.58906 40.83638,-28.22483 19.60148,-33.90519 27.7853,-73.45915 28.7769,-112.29861 -0.63979,-23.73024 -6.91908,-48.99787 -23.86523,-66.4082 -5.95363,-2.70582 -2.3668,-10.43642 -4.01369,-15.39806 C 289.80968,284.9996 206.58852,181.94429 97.24789,148.62109 67.230249,138.96952 35.677467,134.09766 4.1443691,134.3125 Z"
         style="opacity:1;fill:#000000;fill-opacity:1;stroke:none;stroke-width:11.4;stroke-linecap:round;stroke-linejoin:miter;stroke-miterlimit:4;stroke-dasharray:none;stroke-opacity:1" />
      <path
         inkscape:connector-curvature="0"
         id="path4464"
         d="M 5.2986661,144.35156 C -96.015759,143.6225 -195.26589,201.90036 -244.01053,290.72977 c -21.56582,38.3968 -34.30065,81.79626 -36.39002,125.80929 -18.96578,12.59249 -24.45571,36.88617 -26.14063,58.1875 -2.31266,39.33834 9.08468,78.51537 26.88086,113.26953 6.3954,11.01032 16.38406,23.17435 30.30664,22.87305 3.16486,-0.2193 6.28697,-1.08555 9.10547,-2.54297 31.00117,72.07583 75.47328,140.73549 139.32119,187.82002 39.203339,28.28511 89.303705,45.21847 137.705533,35.57045 51.931997,-9.70001 96.072917,-43.03289 130.409317,-81.85472 37.14204,-41.18592 64.80418,-90.64545 86.56201,-140.96739 12.56164,6.00537 27.32344,-2.49288 33.42668,-13.8926 18.43672,-26.18501 25.59825,-58.30646 30.86877,-89.35779 3.4357,-27.62983 1.29285,-58.39902 -16.14897,-81.3082 -2.37071,-3.67638 -7.36014,-5.69955 -9.14258,-9.14258 C 288.02864,313.9028 224.51238,217.78887 133.08098,173.87146 93.51076,154.40224 49.42102,144.06638 5.2986661,144.35156 Z"
         style="opacity:1;fill:#d9bb8b;fill-opacity:1;stroke:none;stroke-width:11.4;stroke-linecap:round;stroke-linejoin:miter;stroke-miterlimit:4;stroke-dasharray:none;stroke-opacity:1" />
      <path
         inkscape:connector-curvature="0"
         id="path4188-0-6"
         d="m 275.79972,419.73446 c -15.43167,1.25064 -25.56197,15.39549 -31.99565,28.09154 -16.54353,34.20917 -14.9747,73.95049 -7.97397,110.3849 3.46869,14.4878 6.92126,30.44979 18.02711,41.17493 5.668,5.54885 14.9083,4.11974 20.17031,-1.23545 14.07796,-13.71854 20.57336,-33.07851 26.71422,-51.27895 9.80582,-32.58712 16.15224,-68.73565 4.07234,-101.61051 -4.66686,-12.27512 -14.24791,-26.18982 -29.01436,-25.52646 z"
         style="opacity:1;fill:#d9bb8b;fill-opacity:1;stroke:none;stroke-width:11.4;stroke-linecap:round;stroke-linejoin:miter;stroke-miterlimit:4;stroke-dasharray:none;stroke-opacity:1" />
      <path
         inkscape:connector-curvature="0"
         id="path4188-0"
         d="m -265.45016,419.73481 c -14.87604,0.99483 -23.67133,15.59677 -27.9842,28.32319 -11.1279,33.96133 -3.89563,70.621 6.6829,103.75104 6.11457,16.864 12.46399,35.00467 26.22428,47.24569 5.58049,5.18649 14.87168,5.26328 20.05167,-0.54428 11.59268,-12.65022 14.91933,-30.38736 18.27758,-46.67044 6.06473,-36.42599 6.57152,-76.35957 -12.11914,-109.42066 -6.57995,-11.10831 -17.0167,-23.14703 -31.13309,-22.68454 z"
         style="opacity:1;fill:#f8e7d0;fill-opacity:1;stroke:none;stroke-width:11.4;stroke-linecap:round;stroke-linejoin:miter;stroke-miterlimit:4;stroke-dasharray:none;stroke-opacity:1" />
      <path
         sodipodi:nodetypes="sssss"
         inkscape:connector-curvature="0"
         id="path4188"
         d="m 285.20101,431.36221 c 0,154.08745 -122.91255,395 -276.9999999,395 -154.0874501,0 -281.0000001,-240.91255 -281.0000001,-395 0,-154.08745 124.91255,-279 279.0000001,-279 154.0874499,0 278.9999999,124.91255 278.9999999,279 z"
         style="opacity:1;fill:url(#radialGradient4388);fill-opacity:1;stroke:none;stroke-width:11.4;stroke-linecap:round;stroke-linejoin:miter;stroke-miterlimit:4;stroke-dasharray:none;stroke-opacity:1" />
      <path
         sodipodi:nodetypes="sssss"
         inkscape:connector-curvature="0"
         id="path4227"
         d="m 130.402,380.48945 c 0,116.37624 -75.56431,210.71782 -168.77761,210.71782 -93.2133,0 -203.16055,-94.1411 -203.16055,-210.51734 0,-116.37624 109.94725,-210.9183 203.16055,-210.9183 93.2133,0 168.77761,94.34158 168.77761,210.71782 z"
         style="opacity:1;fill:url(#linearGradient4237);fill-opacity:1;stroke:none;stroke-width:11.4;stroke-linecap:round;stroke-linejoin:miter;stroke-miterlimit:4;stroke-dasharray:none;stroke-opacity:1" />
      <rect
         ry="7.2995"
         y="686.00854"
         x="-46.831993"
         height="14.599"
         width="106.06602"
         id="rect4458"
         style="opacity:1;fill:#dbbe90;fill-opacity:1;stroke:none;stroke-width:11.4;stroke-linecap:round;stroke-linejoin:miter;stroke-miterlimit:4;stroke-dasharray:none;stroke-opacity:1" />
      <path
         sodipodi:nodetypes="csssscsscsc"
         inkscape:connector-curvature="0"
         id="rect4153-8"
         d="m -291.64214,440.05861 10.46524,104.37845 c 2.81288,28.05516 30.06266,33.99902 58.09034,36.15943 l 148.560717,11.45123 c 28.054964,2.16252 49.480342,-8.1945 55.054154,-38.55515 1.840341,-10.02436 2.792243,-22.17399 3.15643,-35.0665 -2.921225,-0.25182 -5.208611,-3.00756 -5.208611,-6.4 v -58.40996 c 0,-0.034 0.0035,-6.67486 0.004,-6.70872 l -268.87975,-6.72556 c -0.42004,-0.0104 -0.8295,-0.0775 -1.24253,-0.12322 z"
         style="opacity:1;fill:url(#linearGradient4338);fill-opacity:1;stroke:none;stroke-width:1;stroke-linecap:round;stroke-linejoin:miter;stroke-miterlimit:4;stroke-dasharray:none;stroke-opacity:1" />
      <path
         style="opacity:1;fill:url(#linearGradient4384);fill-opacity:1;stroke:none;stroke-width:1;stroke-linecap:round;stroke-linejoin:miter;stroke-miterlimit:4;stroke-dasharray:none;stroke-opacity:1"
         d="m 304.04417,440.05861 -10.46524,104.37845 c -2.81288,28.05516 -30.06266,33.99902 -58.09034,36.15943 L 86.92787,592.04772 c -28.05496,2.16252 -49.48034,-8.1945 -55.05415,-38.55515 -1.84034,-10.02436 -2.79224,-22.17399 -3.15643,-35.0665 2.92123,-0.25182 5.20861,-3.00756 5.20861,-6.4 v -58.40996 c 0,-0.034 -0.004,-6.67486 -0.004,-6.70872 l 268.87974,-6.72556 c 0.42004,-0.0104 0.8295,-0.0775 1.24253,-0.12322 z"
         id="path4382"
         inkscape:connector-curvature="0"
         sodipodi:nodetypes="csssscsscsc" />
      <path
         sodipodi:nodetypes="ssscccccssssscscssssscssss"
         inkscape:connector-curvature="0"
         id="path4316"
         d="m -273.77067,422.43564 c -9.90032,0 -17.87148,7.70465 -17.87148,17.275 0,9.57035 7.98156,16.83636 17.87148,17.275 l 87.33238,3.87262 161.539095,3.57272 c -2.7e-4,0.0177 -8.45e-4,1.89241 -0.0018,3.50898 h 0.0018 c -2.67e-4,0.0177 -8.45e-4,0.035 -0.0018,0.0525 -5.5e-4,0.88774 -0.0018,1.93954 -0.0018,1.94943 v 46.06665 c 0,2.92427 2.312054,5.27848 5.183978,5.27848 h 3.770167 c 2.871924,0 5.069194,-2.35654 5.183979,-5.27848 l 1.8850841,-47.9861 c -0.673022,-6.89793 8.68705103,-12.48272 15.080665,-12.47638 6.7750229,0.007 15.8340549,5.07766 15.0806659,12.47638 l 1.885083,47.9861 c 0.114785,2.92194 2.312054,5.27848 5.183979,5.27848 h 3.770166 c 2.871925,0 5.183979,-2.35421 5.183979,-5.27848 v -47.9861 c 0,-0.0286 -0.0031,-0.056 -0.0036,-0.0844 l 248.871419,-10.9524 c 9.89003,-0.43524 17.87148,-7.70465 17.87148,-17.275 0,-9.57035 -7.97116,-17.275 -17.87148,-17.275 z"
         style="opacity:1;fill:#000000;fill-opacity:1;stroke:none;stroke-width:11.4;stroke-linecap:round;stroke-linejoin:miter;stroke-miterlimit:4;stroke-dasharray:none;stroke-opacity:1" />
    </g>
  </g>
</svg>
